Coordinates
version=1
nRows=7
nColumns=40
inDegrees=yes

Units are S.I. units (second, meters, Newtons, ...)
Angles are in degrees.

endheader
time	pelvis_tilt	pelvis_list	pelvis_rotation	pelvis_tx	pelvis_ty	pelvis_tz	hip_flexion_r	hip_adduction_r	hip_rotation_r	knee_angle_r	knee_angle_r_beta	ankle_angle_r	subtalar_angle_r	mtp_angle_r	hip_flexion_l	hip_adduction_l	hip_rotation_l	knee_angle_l	knee_angle_l_beta	ankle_angle_l	subtalar_angle_l	mtp_angle_l	lumbar_extension	lumbar_bending	lumbar_rotation	arm_flex_r	arm_add_r	arm_rot_r	elbow_flex_r	pro_sup_r	wrist_flex_r	wrist_dev_r	arm_flex_l	arm_add_l	arm_rot_l	elbow_flex_l	pro_sup_l	wrist_flex_l	wrist_dev_l
     12.93000000	     -4.49832893	     -4.83599130	     -0.98028022	      0.92835511	      0.93799785	      0.40220828	     36.48560612	     -5.49877374	     -9.84363521	     62.12584069	     62.12584069	      4.74573649	    -11.55272154	     -0.26721874	     12.28635207	     -4.94635802	    -16.68814260	     17.77833760	     17.77833760	     13.77100816	      1.16189642	     -3.22054820	    -10.53553524	      1.20626932	     -0.90647229	    -12.40376136	    -14.15603650	      4.17952543	     36.79866083	     45.26287950	      0.00000000	      0.00000000	     17.72777434	    -18.00951196	     -4.96788512	     52.42780094	     45.76400106	      0.00000000	      0.00000000
     12.94207143	     -4.52653329	     -4.58503702	     -1.21224058	      0.92685339	      0.93771091	      0.40239111	     37.06250723	     -5.54251226	     -9.92833140	     59.72441008	     59.72441008	      4.96284739	    -11.47576724	     -0.03918914	     11.86548136	     -4.69650222	    -16.88667429	     17.82968980	     17.82968980	     14.11869928	      1.05395980	     -3.38727914	    -10.38759128	      0.70086075	     -1.20963914	    -12.99669568	    -14.21656952	      4.18154093	     36.62994594	     45.26625412	      0.00000000	      0.00000000	     18.01180308	    -18.24309120	     -5.04953664	     52.53519287	     45.77646164	      0.00000000	      0.00000000
     12.95414286	     -4.38930574	     -4.80082022	     -1.46644799	      0.92567776	      0.93820201	      0.40294890	     37.04095906	     -4.94236840	    -10.22721215	     56.68468774	     56.68468774	      4.80507621	    -11.88271194	     -0.03000361	     10.89253966	     -4.90033017	    -17.22777528	     17.19069641	     17.19069641	     14.28726621	      1.43721667	     -3.46368156	    -10.51758205	      0.74179507	     -0.99063702	    -14.01910980	    -14.24635204	      4.24137988	     36.36063536	     45.27317229	      0.00000000	      0.00000000	     18.49245296	    -18.21343946	     -5.41237301	     52.69894664	     45.83350557	      0.00000000	      0.00000000
     12.96621429	     -4.47081736	     -4.79966730	     -1.67926348	      0.92427677	      0.93801851	      0.40326630	     37.24764004	     -4.66359047	    -10.52398916	     53.69565610	     53.69565610	      4.76414120	    -11.68882221	      0.22494548	     10.41167621	     -4.88738192	    -17.39622777	     16.98303386	     16.98303386	     14.54820903	      1.48156937	     -3.58309239	    -10.33963984	      0.56764644	     -1.13343346	    -14.76976539	    -14.29324638	      4.24401069	     36.20026237	     45.27665629	      0.00000000	      0.00000000	     18.73389535	    -18.38083942	     -5.60949752	     52.75901494	     45.86012864	      0.00000000	      0.00000000
     12.97828571	     -4.41760454	     -4.84098467	     -1.89630660	      0.92299099	      0.93802483	      0.40356588	     37.13627035	     -4.28060455	    -10.80493056	     50.49378908	     50.49378908	      4.63361805	    -11.50121236	      0.51102126	      9.72896541	     -4.90240697	    -17.61839707	     16.68408011	     16.68408011	     14.79527297	      1.59529561	     -3.71282601	    -10.33960132	      0.44594511	     -1.16740474	    -15.47109199	    -14.42064644	      4.22190797	     36.08556453	     45.28119164	      0.00000000	      0.00000000	     19.01297792	    -18.32510889	     -5.88377325	     52.80730147	     45.89671335	      0.00000000	      0.00000000
     12.99035714	     -4.42144367	     -4.87210146	     -2.10000026	      0.92173172	      0.93790349	      0.40385820	     36.96824786	     -3.89983675	    -11.09858925	     47.19748301	     47.19748301	      4.50178757	    -11.05831598	      0.85702757	      9.11351853	     -4.89575005	    -17.81582569	     16.36952960	     16.36952960	     15.01512762	      1.69511784	     -3.84420827	    -10.27546289	      0.35231096	     -1.16540719	    -16.08908633	    -14.53109199	      4.18135533	     36.01059184	     45.28569893	      0.00000000	      0.00000000	     19.21888323	    -18.25276876	     -6.18059646	     52.81144695	     45.93352484	      0.00000000	      0.00000000
     13.00242857	     -4.43110282	     -4.88495910	     -2.30729219	      0.92049458	      0.93766907	      0.40411366	     36.71064244	     -3.52852124	    -11.39284095	     43.84041284	     43.84041284	      4.34483599	    -10.36818304	      1.27383338	      8.49818527	     -4.85408702	    -17.97393140	     16.04611785	     16.04611785	     15.25435082	      1.76952680	     -3.99462436	    -10.18143377	      0.26608527	     -1.16478961	    -16.59364078	    -14.64865121	      4.11808919	     35.96305751	     45.29101593	      0.00000000	      0.00000000	     19.35171047	    -18.12853937	     -6.46750708	     52.78295162	     45.96760192	      0.00000000	      0.00000000
